<?xml version="1.0" encoding="utf-8"?>
<!-- Generator: Adobe Illustrator 18.0.0, SVG Export Plug-In . SVG Version: 6.00 Build 0)  -->
<!DOCTYPE svg PUBLIC "-//W3C//DTD SVG 1.1//EN" "http://www.w3.org/Graphics/SVG/1.1/DTD/svg11.dtd">
<svg version="1.1" id="Lager_1" xmlns="http://www.w3.org/2000/svg" xmlns:xlink="http://www.w3.org/1999/xlink" x="0px" y="0px"
	 viewBox="0 0 100 100" enable-background="new 0 0 100 100" xml:space="preserve">
<path fill="#FFFFFF" d="M55,53.7c-2,2.8-6,3.4-8.7,1.3s-3.4-6-1.3-8.7c2-2.8,6-3.4,8.7-1.3C56.5,47,57.1,50.9,55,53.7z M61.5,30.2
	l-14.4,9.4c-3.2,2.1-6.7,6.9-7.8,10.6l-4.7,16.6c-1.1,3.7,0.7,5,4,2.9l14.4-9.4c3.2-2.1,6.7-6.9,7.8-10.6l4.7-16.6
	C66.5,29.4,64.7,28.1,61.5,30.2z M50,78.2c-15.6,0-28.2-12.7-28.2-28.2S34.4,21.8,50,21.8S78.2,34.4,78.2,50S65.6,78.2,50,78.2z
	 M50,14.7c-19.4,0-35.3,15.8-35.3,35.3S30.6,85.3,50,85.3S85.3,69.4,85.3,50S69.4,14.7,50,14.7z"/>
</svg>
