<?xml version="1.0" encoding="utf-8"?>
<!-- Generator: Adobe Illustrator 18.0.0, SVG Export Plug-In . SVG Version: 6.00 Build 0)  -->
<!DOCTYPE svg PUBLIC "-//W3C//DTD SVG 1.1//EN" "http://www.w3.org/Graphics/SVG/1.1/DTD/svg11.dtd">
<svg version="1.1" id="Lager_1" xmlns="http://www.w3.org/2000/svg" xmlns:xlink="http://www.w3.org/1999/xlink" x="0px" y="0px"
	 viewBox="0 0 100 100" enable-background="new 0 0 100 100" xml:space="preserve">
<g>
	<path fill="#FFFFFF" d="M39.1,39.3c0.6-1.9,0-3.8-1.9-4.7c-1.9-0.9-4.1,0-4.7,1.6c-0.9,1.6-0.3,3.4,1.2,4.4h4.1
		C38.4,40.2,38.8,39.9,39.1,39.3z"/>
	<path fill="#FFFFFF" d="M25,40.6h1.2l-0.3-1.2l4.4-10l2.5-0.9c0.3,0,0.3,0.3,0.6,0.3c1.9,0.9,4.1,0,4.7-1.6c0-0.3,0-0.3,0-0.6
		l2.5-0.6L70,38.7l0.6,1.9H75c2.5,0,4.7,0.9,6.2,2.5c0-2.2-1.2-4.4-3.4-5.3L35.9,19.3c-2.8-1.2-6.2,0-7.5,2.8l-9.1,20.3
		C20.9,41.2,22.8,40.6,25,40.6z"/>
	<path fill="#FFFFFF" d="M53.4,36.8c-4.4-1.9-9.1,0-10.9,3.8h15C56.6,39,55.3,37.7,53.4,36.8z"/>
	<path fill="#FFFFFF" d="M36.9,62.4c0,2.2-1.9,3.8-4.1,3.8c-2.2,0-4.1-1.6-4.1-3.8c0-2.2,1.9-3.8,4.1-3.8
		C35,58.7,36.9,60.2,36.9,62.4z M59.7,62.4c0,4.7-4.1,8.8-9.4,8.8c-5.3,0-9.4-3.8-9.4-8.8s4.1-8.8,9.4-8.8
		C55.6,53.7,59.7,57.7,59.7,62.4z M71.2,62.4c0,2.2-1.9,3.8-4.1,3.8c-2.2,0-4.1-1.6-4.1-3.8c0-2.2,1.9-3.8,4.1-3.8
		C69.4,58.7,71.2,60.2,71.2,62.4z M76.2,68.4l-2.2,1.9c-0.3,0-0.6,0-0.6,0c-2.2,0-4.1,1.6-4.1,3.8c0,0.3,0,0.6,0,0.6l-2.2,1.9H32.5
		l-2.2-1.9c0-0.3,0-0.3,0-0.6c0-2.2-1.9-3.8-4.1-3.8c-0.3,0-0.6,0-0.6,0l-2.2-1.9V56.2l2.2-1.9c0.3,0,0.6,0,0.6,0
		c2.2,0,4.1-1.6,4.1-3.8c0-0.3,0-0.6,0-0.6l2.2-1.9h35l2.2,1.9c0,0.3,0,0.3,0,0.6c0,2.2,1.9,3.8,4.1,3.8c0.3,0,0.6,0,0.6,0l2.2,1.9
		v12.2H76.2z M18.8,49.9v25c0,3.4,2.8,6.2,6.2,6.2h50c3.4,0,6.2-2.8,6.2-6.2v-25c0-3.4-2.8-6.2-6.2-6.2H25
		C21.6,43.7,18.8,46.5,18.8,49.9z"/>
</g>
</svg>
