<?xml version="1.0" encoding="utf-8"?>
<!-- Generator: Adobe Illustrator 18.0.0, SVG Export Plug-In . SVG Version: 6.00 Build 0)  -->
<!DOCTYPE svg PUBLIC "-//W3C//DTD SVG 1.1//EN" "http://www.w3.org/Graphics/SVG/1.1/DTD/svg11.dtd">
<svg version="1.1" id="Lager_1" xmlns="http://www.w3.org/2000/svg" xmlns:xlink="http://www.w3.org/1999/xlink" x="0px" y="0px"
	 viewBox="0 0 400 200" enable-background="new 0 0 400 200" xml:space="preserve">
<path fill="#FFFFFF" d="M187.3,124.2c13.8,4.3,26.6,0.1,34.5-21.3c-2.8-3.7-12.5-7.3-17.4-6.4c-2,7.3-5.9,13.3-10.3,11.8
	c-4.6-1.7-4.6-10.5-1.4-24.9c3.5-15.2,8.3-24.8,13.7-23.9c5.9,1,3.9,12.6,0.3,22.8c3.4,3.4,13.7,5.2,19.5,3.6
	c5.3-21.2,4.7-40.1-15.6-43.5c-18.5-3-33,10.8-38.4,41.1C168.7,102.7,170.6,119,187.3,124.2z M156.5,127.1
	c3.6-19.9,9.9-54.2,14.3-75.5c-4.3-4.2-13-5-19.5-3.7c-4.5,23.4-11.8,62.4-13.6,73.5C139.1,126.6,150.9,128.2,156.5,127.1z
	 M318.9,96.8c2.2,2.3,0.3,5-3.3,5.2c-5.7,0.2-13.3-4.7-19-13.7c-4.9,2.8-10.3,11.1-10.2,17.7c9.5,16.5,44.3,18.9,49-4.4
	c10.5-20.9-26-23.8-20.5-41.4c2.6-8.7,13.1-12.1,11.2-2.8c-0.5,2.5-2.2,7-3.9,10.3c2,3.9,11.7,8.9,18.6,8.5c1.3-9.1,4-17.4,4.4-23.4
	c0.5-9-3.9-13-15.6-16.9c-14-4.2-25.9,3.6-32.2,18.6C287.4,78.4,306.3,87.2,318.9,96.8z M247.3,120.9l4.9-26.5
	c3.6,9.1,9.8,20.6,14.6,25.5c5.7,0.7,16.7-1.5,20.1-5.2c-7.5-7.2-15.1-17.8-20.2-29c13-14.1,23.2-29.9,28.6-41.6
	c-3.7-4.3-10.7-5.7-17.7-5.3C272.5,50,265,62.4,255.8,74.4c2-10.5,4-20.7,5.7-29c-4.2-4.2-13-5-19.5-3.7
	c-4.5,23.4-11.8,62.4-13.6,73.5C229.8,120.4,241.6,121.9,247.3,120.9z M92.2,124.7c1.5,4.8,12.8,6.6,18.6,5.4
	c3.6-19.9,6.7-38.2,11.2-59.6c-0.9-0.9-2.2-1.6-3.5-2.2c8.4-0.6,16.2-1.3,21-1.8c3.9-3.2,5.7-15.3,4.5-18.1l-53.2,3.9
	c-4.2,3.9-6.4,12.5-6.4,18.5c4-0.3,10.5-0.9,17.9-1.4C98,91.8,93.9,114.1,92.2,124.7z M359.4,33.8c-2.9,16-4.8,31.5-7.8,49.3
	c2.8,3.3,11.1,5,16.1,3.8c3.5-15.4,9.3-34,13.4-50.9C377.2,32.4,364.5,31.4,359.4,33.8z M354,91.9c-6.2,2.3-10.3,9.8-8.3,15.9
	c1.5,4.8,6.3,7.4,11.4,5.5c6.3-2.4,10.3-10,8.5-16C364.1,92.4,359.2,89.9,354,91.9z M70.4,119.8C80.9,98.9,44.4,96,50,78.4
	c2.6-8.7,13.1-12.1,11.2-2.8c-0.5,2.5-2.2,7.1-3.9,10.3c2,3.9,11.7,8.9,18.7,8.4c1.3-9.1,4-17.4,4.4-23.4c0.5-9-3.9-13-15.6-16.9
	c-14.1-4.2-26,3.6-32.2,18.6c-10.1,24.1,8.8,32.8,21.4,42.5c2.2,2.3,0.3,5-3.3,5.2c-5.7,0.2-13.3-4.7-19-13.7
	c-4.9,2.8-10.3,11.1-10.2,17.7C30.9,140.7,65.7,143.1,70.4,119.8z M339.1,128c-18.9,0-327,23.6-327,37.8
	c0,7.9,212.5-18.2,325.8-18.2C363.9,147.6,358,128,339.1,128z"/>
</svg>
