<?xml version="1.0" encoding="utf-8"?>
<!-- Generator: Adobe Illustrator 18.0.0, SVG Export Plug-In . SVG Version: 6.00 Build 0)  -->
<!DOCTYPE svg PUBLIC "-//W3C//DTD SVG 1.1//EN" "http://www.w3.org/Graphics/SVG/1.1/DTD/svg11.dtd">
<svg version="1.1" id="Lager_1" xmlns="http://www.w3.org/2000/svg" xmlns:xlink="http://www.w3.org/1999/xlink" x="0px" y="0px"
	 viewBox="0 0 150 150" enable-background="new 0 0 150 150" xml:space="preserve">
<path fill="#FFFFFF" d="M68,51.7c-0.1,0-0.2,0-0.4-0.1c-0.4-0.2-0.6-0.7-0.4-1.1c0.1-0.2,2.1-4.5,8.5-9.6c0.4-0.3,0.9-0.2,1.2,0.1
	c0.3,0.4,0.2,0.9-0.1,1.2c-6,4.8-8,9-8,9C68.6,51.6,68.3,51.7,68,51.7z"/>
<path fill="#FFFFFF" d="M75.1,51.7c-0.1,0-0.3,0-0.4-0.1c-0.4-0.2-0.6-0.7-0.4-1.1c0.1-0.2,2.5-4.9,8.9-9.6c0.4-0.3,0.9-0.2,1.2,0.2
	c0.3,0.4,0.2,0.9-0.2,1.2c-6.1,4.5-8.4,9-8.4,9C75.7,51.6,75.4,51.7,75.1,51.7z"/>
<path fill="#FFFFFF" d="M76.2,58.2c-0.1,0-0.2,0-0.4-0.1c-0.4-0.2-0.6-0.7-0.4-1.1c0.1-0.2,2.1-4.5,8.5-9.6c0.4-0.3,0.9-0.2,1.2,0.1
	c0.3,0.4,0.2,0.9-0.1,1.2c-6.1,4.9-8,9-8,9C76.8,58,76.5,58.2,76.2,58.2z"/>
<path fill="#FFFFFF" d="M70.5,74.4c-0.1,0-0.2,0-0.2,0c-0.4-0.1-0.7-0.6-0.6-1.1l2.7-9.1c-0.3-0.1-0.6-0.3-1.1-0.4
	c-0.4-0.1-0.9-0.1-1.2-0.1l-1,7.6c-0.1,0.5-0.5,0.8-0.9,0.7c-0.5-0.1-0.8-0.5-0.7-0.9l1-8.2c0-0.3,0.3-0.6,0.6-0.7
	c0.1,0,1.2-0.3,2.5,0c1.5,0.3,2.2,1,2.3,1.1c0.2,0.2,0.3,0.5,0.2,0.8l-2.8,9.6C71.2,74.2,70.9,74.4,70.5,74.4z"/>
<path fill="#FFFFFF" d="M51.2,51c-0.9,0-2,0.3-3.2,0.8c-1.2,0.6-2.6,1.8-2.9,3c-0.2,0.6-0.1,1.1,0.2,1.7c0,0.1,0.1,0.2,0.2,0.4
	c3.6,6.5,18.4,29.4,55.3,50.1c0.4,0.2,0.9,0.4,1.4,0.4c1,0,2-0.5,2.5-1.4c0.8-1.3,0.3-3-1.1-3.8C69.9,82.2,56.3,57.4,53.9,52.6
	l-0.1-0.1C53.2,51.5,52.4,51,51.2,51z M102.2,109.1c-0.8,0-1.5-0.2-2.2-0.6C62.7,87.6,47.7,64.4,44.1,57.8c-0.1-0.2-0.1-0.3-0.2-0.3
	c-0.6-0.9-0.8-2-0.4-3.1c0.5-1.8,2.3-3.4,3.8-4.1c3.6-1.7,6.5-1.2,8.1,1.4c0,0,0,0.1,0.1,0.2c2.3,4.7,15.8,29.2,49,48.9
	c2.2,1.3,2.9,4,1.7,6.1C105.3,108.3,103.8,109.1,102.2,109.1z"/>
<path fill="#FFFFFF" d="M55.5,68.8c-0.2,0-0.5-0.1-0.6-0.3c-2.5-2.6-5.2-7.8-5.3-8c-0.2-0.4-0.1-0.9,0.4-1.1
	c0.4-0.2,0.9-0.1,1.1,0.4c0,0.1,2.7,5.2,5.1,7.6c0.3,0.3,0.3,0.9,0,1.2C55.9,68.7,55.7,68.8,55.5,68.8z"/>
<path fill="#FFFFFF" d="M63.9,73.2c-0.2,0-0.4-0.1-0.6-0.2c-1.9-1.9-5.7-7-5.9-7.2c-0.3-0.4-0.2-0.9,0.2-1.2
	c0.4-0.3,0.9-0.2,1.2,0.2c0,0.1,3.9,5.2,5.7,7c0.3,0.3,0.3,0.9,0,1.2C64.3,73.1,64.1,73.2,63.9,73.2z"/>
<path fill="#FFFFFF" d="M70.2,84.1c-0.2,0-0.4-0.1-0.6-0.2c-1.9-1.7-3.7-3.9-3.8-3.9c-0.3-0.4-0.3-0.9,0.1-1.2
	c0.4-0.3,0.9-0.3,1.2,0.1c0,0,1.9,2.2,3.7,3.8c0.4,0.3,0.4,0.8,0.1,1.2C70.6,84,70.4,84.1,70.2,84.1z"/>
<path fill="#FFFFFF" d="M79.5,88.4c-0.2,0-0.4-0.1-0.5-0.2c-1.6-1.2-3.6-3.1-3.7-3.2c-0.3-0.3-0.3-0.9,0-1.2c0.3-0.3,0.9-0.3,1.2,0
	c0,0,2,1.9,3.5,3.1c0.4,0.3,0.4,0.8,0.2,1.2C80,88.3,79.7,88.4,79.5,88.4z"/>
<path fill="#FFFFFF" d="M86.5,97.3c-0.2,0-0.3,0-0.5-0.1c-1.7-1.2-3.6-2.8-3.6-2.9C82,93.9,82,93.4,82.3,93c0.3-0.4,0.8-0.4,1.2-0.1
	c0,0,1.9,1.7,3.5,2.8c0.4,0.3,0.5,0.8,0.2,1.2C87,97.1,86.8,97.3,86.5,97.3z"/>
<path fill="#FFFFFF" d="M96,100.8c-0.1,0-0.3,0-0.4-0.1c-1.5-0.9-3.1-2.1-3.1-2.2c-0.4-0.3-0.4-0.8-0.1-1.2c0.3-0.4,0.8-0.4,1.2-0.1
	c0,0,1.5,1.2,3,2.1c0.4,0.2,0.5,0.8,0.3,1.2C96.6,100.6,96.3,100.8,96,100.8z"/>
<path fill="#FFFFFF" d="M46.9,58.1c-0.7,0-1.5-0.1-2.4-0.2c-0.5-0.1-0.8-0.5-0.7-1c0.1-0.5,0.5-0.8,1-0.7c6.8,1.4,8.4-4.4,8.5-4.7
	c0.1-0.5,0.6-0.7,1-0.6c0.5,0.1,0.7,0.6,0.6,1C55,52.1,53.3,58.1,46.9,58.1z"/>
</svg>
