<?xml version="1.0" encoding="utf-8"?>
<!-- Generator: Adobe Illustrator 18.0.0, SVG Export Plug-In . SVG Version: 6.00 Build 0)  -->
<!DOCTYPE svg PUBLIC "-//W3C//DTD SVG 1.1//EN" "http://www.w3.org/Graphics/SVG/1.1/DTD/svg11.dtd">
<svg version="1.1" id="Lager_1" xmlns="http://www.w3.org/2000/svg" xmlns:xlink="http://www.w3.org/1999/xlink" x="0px" y="0px"
	 viewBox="0 0 150 150" enable-background="new 0 0 150 150" xml:space="preserve">
<g>
	<path fill="#FFFFFF" d="M75.2,67.5c-0.1-0.1-0.1-0.1-0.1-0.2c-0.2-0.4-0.1-0.9,0.3-1.1l7.8-4.3c-0.1-0.3-0.2-0.6-0.5-1
		c-0.2-0.4-0.5-0.6-0.7-0.8l-5.7,4.4c-0.3,0.3-0.8,0.2-1.1-0.1c-0.3-0.4-0.2-0.9,0.1-1.1l6.2-4.8c0.3-0.2,0.6-0.2,0.9-0.1
		c0.1,0.1,1,0.6,1.7,1.7c0.8,1.2,0.8,2.2,0.8,2.3c0,0.3-0.2,0.6-0.4,0.7l-8.3,4.6C75.9,67.8,75.5,67.7,75.2,67.5z"/>
</g>
<g>
	<path fill="#FFFFFF" d="M78,38.8c-0.6-0.6-1.5-1.1-2.7-1.6c-1.2-0.4-2.9-0.5-4,0.1c-0.5,0.3-0.8,0.7-1,1.3c0,0.1-0.1,0.2-0.1,0.4
		c-1.9,6.8-7.4,32,3.5,70.5c0.1,0.4,0.4,0.8,0.7,1.2c0.7,0.7,1.7,0.9,2.6,0.7c1.4-0.4,2.2-1.8,1.8-3.3c-9.2-35.9-1.7-61.6-0.1-66.4
		l0-0.1C79,40.6,78.8,39.6,78,38.8z M73.2,111.9c-0.5-0.5-0.9-1.2-1.1-1.9c-11-39-5.4-64.5-3.5-71.4c0-0.2,0.1-0.3,0.1-0.3
		c0.2-1,0.8-1.8,1.8-2.3c1.6-0.9,3.8-0.7,5.3-0.2c3.5,1.3,5.2,3.6,4.5,6.3c0,0,0,0.1-0.1,0.2c-1.6,4.7-9,30.1,0.1,65.5
		c0.6,2.3-0.7,4.6-3,5.2C75.9,113.4,74.3,113,73.2,111.9z"/>
</g>
<g>
	<path fill="#FFFFFF" d="M68.9,53.6c-0.2-0.2-0.2-0.4-0.2-0.6c0.1-3.4,1.7-8.7,1.8-8.9c0.1-0.4,0.6-0.7,1-0.5c0.4,0.1,0.7,0.6,0.5,1
		c0,0.1-1.6,5.3-1.7,8.5c0,0.4-0.4,0.8-0.8,0.8C69.3,53.8,69.1,53.7,68.9,53.6z"/>
</g>
<g>
	<path fill="#FFFFFF" d="M71.6,62.2c-0.1-0.1-0.2-0.3-0.2-0.6c0-2.6,0.8-8.5,0.9-8.7c0.1-0.4,0.5-0.7,0.9-0.7
		c0.4,0.1,0.7,0.5,0.7,0.9c0,0.1-0.9,6.1-0.9,8.5c0,0.4-0.4,0.8-0.8,0.8C72,62.4,71.8,62.3,71.6,62.2z"/>
</g>
<g>
	<path fill="#FFFFFF" d="M68.5,73.7c-0.1-0.1-0.2-0.3-0.2-0.5c-0.1-2.4,0.1-5.1,0.1-5.2c0-0.4,0.4-0.8,0.9-0.7
		c0.4,0,0.8,0.4,0.7,0.9c0,0-0.2,2.7-0.1,5c0,0.4-0.3,0.8-0.8,0.8C68.9,73.9,68.7,73.8,68.5,73.7z"/>
</g>
<g>
	<path fill="#FFFFFF" d="M71.8,82.8c-0.1-0.1-0.2-0.3-0.2-0.5c-0.3-1.9-0.3-4.5-0.3-4.6c0-0.4,0.3-0.8,0.8-0.8
		c0.4,0,0.8,0.3,0.8,0.8c0,0,0,2.6,0.3,4.4c0.1,0.4-0.2,0.8-0.7,0.9C72.3,83.1,72,83,71.8,82.8z"/>
</g>
<g>
	<path fill="#FFFFFF" d="M70.6,93.4c-0.1-0.1-0.2-0.3-0.2-0.4c-0.4-1.9-0.5-4.3-0.5-4.4c0-0.4,0.3-0.8,0.8-0.8
		c0.4,0,0.8,0.3,0.8,0.8c0,0,0.1,2.3,0.5,4.2c0.1,0.4-0.2,0.9-0.6,0.9C71.1,93.7,70.8,93.6,70.6,93.4z"/>
</g>
<g>
	<path fill="#FFFFFF" d="M74.7,102.2c-0.1-0.1-0.2-0.2-0.2-0.4c-0.4-1.7-0.6-3.5-0.6-3.6c0-0.4,0.3-0.8,0.7-0.9
		c0.4-0.1,0.8,0.3,0.9,0.7c0,0,0.2,1.8,0.6,3.4c0.1,0.4-0.2,0.9-0.6,1C75.1,102.5,74.9,102.4,74.7,102.2z"/>
</g>
<g>
	<path fill="#FFFFFF" d="M73,117.7c-5.2,0-9.5-1.6-11.6-3.8c-1.9-2-2.1-4.3-0.5-6.5c0.2-0.3,0.7-0.4,1.1-0.2
		c0.3,0.2,0.4,0.7,0.2,1.1c-1.4,1.9-0.5,3.5,0.4,4.5c3.9,4.1,16,5.3,26.8-1.9c0.4-0.2,0.8-0.1,1.1,0.2c0.2,0.4,0.1,0.8-0.2,1.1
		C84.2,116.1,78.1,117.7,73,117.7z"/>
</g>
<g>
	<path fill="#FFFFFF" d="M63.4,94.4c-0.2,0-0.4-0.1-0.5-0.2c-0.3-0.3-0.3-0.8,0-1.1c0.3-0.3,2.7-2.9,4.8-3.2
		c0.4-0.1,0.8,0.2,0.9,0.7c0.1,0.4-0.2,0.8-0.7,0.9c-1.3,0.2-3.3,2-3.9,2.7C63.8,94.4,63.6,94.4,63.4,94.4z"/>
</g>
<g>
	<path fill="#FFFFFF" d="M91.3,98.1c-0.4,0-0.8-0.3-0.8-0.7c-0.4-8.9-14.3-8.8-14.4-8.8c-0.5,0-0.8-0.3-0.8-0.8
		c0-0.4,0.3-0.8,0.8-0.8c0.1,0,15.6-0.2,16,10.3C92,97.7,91.7,98.1,91.3,98.1C91.3,98.1,91.3,98.1,91.3,98.1z"/>
</g>
<g>
	<path fill="#FFFFFF" d="M88.2,119.1c-0.3,0-0.6-0.2-0.7-0.4c-0.2-0.4,0-0.8,0.3-1c4.7-2.4,7.9-5.7,9.3-10c0.1-0.4,0.6-0.6,1-0.5
		c0.4,0.1,0.6,0.6,0.5,1c-1.5,4.6-5,8.4-10.1,10.9C88.4,119.1,88.3,119.1,88.2,119.1z"/>
</g>
</svg>
