<?xml version="1.0" encoding="utf-8"?>
<!-- Generator: Adobe Illustrator 18.0.0, SVG Export Plug-In . SVG Version: 6.00 Build 0)  -->
<!DOCTYPE svg PUBLIC "-//W3C//DTD SVG 1.1//EN" "http://www.w3.org/Graphics/SVG/1.1/DTD/svg11.dtd">
<svg version="1.1" id="Lager_1" xmlns="http://www.w3.org/2000/svg" xmlns:xlink="http://www.w3.org/1999/xlink" x="0px" y="0px"
	 viewBox="0 0 150 150" enable-background="new 0 0 150 150" xml:space="preserve">
<rect x="0.4" opacity="0.7" fill="#FFFFFF" width="150" height="150"/>
<g opacity="0.8">
	<path fill="#FF3F00" d="M68.9,77.8c-0.1,0.1-0.1,0.1-0.2,0.2c-0.4,0.3-1,0.1-1.2-0.3l-5.3-8.3c-0.3,0.1-0.7,0.3-1.1,0.6
		c-0.4,0.3-0.7,0.6-0.9,0.9l5.3,6c0.3,0.4,0.3,0.9-0.1,1.2c-0.4,0.3-0.9,0.3-1.2-0.1l-5.8-6.5c-0.2-0.3-0.3-0.7-0.1-1
		c0.1-0.1,0.6-1.2,1.7-2c1.3-0.9,2.3-1.1,2.5-1.1c0.3,0,0.7,0.1,0.8,0.4l5.7,8.8C69.2,77.1,69.1,77.5,68.9,77.8z"/>
</g>
<g opacity="0.8">
	<path fill="#FF3F00" d="M37.1,77c-0.6,0.7-1.1,1.8-1.5,3.1c-0.4,1.3-0.4,3.2,0.4,4.4c0.4,0.6,0.8,0.9,1.5,1c0.1,0,0.2,0,0.5,0.1
		c7.6,1.6,35.8,5.7,77.4-9.2c0.5-0.2,0.9-0.5,1.2-0.8c0.7-0.8,0.9-1.9,0.6-2.9c-0.5-1.5-2.2-2.3-3.8-1.8
		C74.6,83.7,45.7,77.4,40.3,76l-0.1,0C39,75.7,38,76.1,37.1,77z M118,76.7c-0.5,0.6-1.2,1.1-2,1.3c-42.1,15-70.6,10.9-78.4,9.3
		c-0.2,0-0.3-0.1-0.4-0.1c-1.1-0.2-2.1-0.8-2.7-1.8c-1.1-1.7-1.1-4.1-0.6-5.8c1.1-4,3.5-6,6.6-5.4c0,0,0.1,0,0.2,0
		c5.3,1.4,33.8,7.6,72.1-5.1c2.5-0.8,5.1,0.4,6,2.9C119.4,73.6,119.1,75.4,118,76.7z"/>
</g>
<g opacity="0.8">
	<path fill="#FF3F00" d="M50.7,85.8c-0.2,0.2-0.4,0.3-0.6,0.3c-3.8,0.1-9.7-1.2-10-1.3c-0.5-0.1-0.8-0.6-0.7-1.1s0.6-0.8,1.1-0.7
		c0.1,0,5.9,1.4,9.5,1.2c0.5,0,0.9,0.4,0.9,0.9C50.9,85.4,50.8,85.7,50.7,85.8z"/>
</g>
<g opacity="0.8">
	<path fill="#FF3F00" d="M63.3,82.2c-0.1,0.2-0.4,0.3-0.6,0.3c-2.8,0.2-9.4-0.3-9.7-0.3c-0.5,0-0.9-0.5-0.8-0.9
		c0-0.5,0.5-0.9,0.9-0.8c0.1,0,6.7,0.5,9.4,0.3c0.5,0,0.9,0.3,0.9,0.8C63.6,81.8,63.5,82,63.3,82.2z"/>
</g>
<g opacity="0.8">
	<path fill="#FF3F00" d="M76.2,84.7c-0.1,0.2-0.3,0.3-0.6,0.3c-2.6,0.3-5.6,0.3-5.7,0.3c-0.5,0-0.9-0.4-0.9-0.9
		c0-0.5,0.4-0.9,0.9-0.9c0,0,3,0,5.5-0.3c0.5-0.1,0.9,0.3,1,0.8C76.5,84.3,76.4,84.5,76.2,84.7z"/>
</g>
<g opacity="0.8">
	<path fill="#FF3F00" d="M86,80.4c-0.1,0.1-0.3,0.2-0.5,0.3c-2.1,0.4-4.9,0.7-5.1,0.7c-0.5,0-0.9-0.3-1-0.8c0-0.5,0.3-0.9,0.8-1
		c0,0,2.9-0.2,4.8-0.6c0.5-0.1,0.9,0.2,1,0.7C86.3,79.9,86.2,80.2,86,80.4z"/>
</g>
<g opacity="0.8">
	<path fill="#FF3F00" d="M97.8,80.9c-0.1,0.1-0.3,0.2-0.4,0.3c-2.1,0.5-4.7,0.9-4.8,0.9c-0.5,0.1-0.9-0.3-1-0.8
		c-0.1-0.5,0.3-0.9,0.8-1c0,0,2.6-0.3,4.5-0.8c0.5-0.1,1,0.2,1.1,0.6C98.1,80.4,98,80.7,97.8,80.9z"/>
</g>
<g opacity="0.8">
	<path fill="#FF3F00" d="M107.1,75.8c-0.1,0.1-0.2,0.2-0.4,0.3c-1.8,0.6-3.8,1-3.9,1c-0.5,0.1-0.9-0.2-1-0.7c-0.1-0.5,0.2-0.9,0.7-1
		c0,0,2-0.4,3.7-0.9c0.5-0.2,1,0.1,1.1,0.6C107.4,75.3,107.3,75.6,107.1,75.8z"/>
</g>
<g opacity="0.8">
	<path fill="#FF3F00" d="M101.8,68.4c-0.4,0-0.7-0.3-0.8-0.6c-0.1-0.5,0.2-0.9,0.6-1c6.4-1.7,20.6-8.2,20.7-8.2
		c0.4-0.2,0.9,0,1.1,0.4c0.2,0.4,0,0.9-0.4,1.1c-0.6,0.3-14.4,6.6-21,8.3C102,68.3,101.9,68.4,101.8,68.4z"/>
</g>
<g opacity="0.8">
	<path fill="#FF3F00" d="M93.1,89.7c-0.4,0-0.7-0.3-0.8-0.6c-0.1-0.5,0.2-0.9,0.6-1c6.5-1.7,26.1-7.6,26.3-7.7
		c0.4-0.1,0.9,0.1,1.1,0.6c0.1,0.5-0.1,0.9-0.6,1.1c-0.2,0.1-19.9,6-26.4,7.7C93.3,89.7,93.2,89.7,93.1,89.7z"/>
</g>
<g opacity="0.8">
	<path fill="#FF3F00" d="M26.8,72.9"/>
</g>
<g opacity="0.8">
	<path fill="#FF3F00" d="M40.5,72.3c-0.2,0-0.4-0.1-0.5-0.2c-0.4-0.3-0.4-0.8-0.1-1.2c0,0,4-4.9,3.2-11.4c-0.1-0.5,0.3-0.9,0.7-1
		c0.5-0.1,0.9,0.3,1,0.7c0.9,7.3-3.4,12.5-3.6,12.7C40.9,72.2,40.7,72.3,40.5,72.3z"/>
</g>
<g opacity="0.8">
	<path fill="#FF3F00" d="M41.9,101.8c-0.1,0-0.1,0-0.2,0c-0.5-0.1-0.7-0.6-0.6-1c0.8-3.4-1-7.9-3.1-10.5c-0.3-0.4-0.2-0.9,0.1-1.2
		c0.4-0.3,0.9-0.2,1.2,0.1c1.9,2.4,4.4,7.5,3.4,11.9C42.7,101.6,42.3,101.8,41.9,101.8z"/>
</g>
<g opacity="0.8">
	<path fill="#FF3F00" d="M21.6,85.9c-0.5,0-0.9-0.4-0.9-0.9c0-0.5,0.4-0.9,0.9-0.9c1.8,0,6.7-0.5,8.1-2.7c0.3-0.4,0.8-0.5,1.2-0.3
		c0.4,0.3,0.5,0.8,0.3,1.2C28.9,85.9,21.9,85.9,21.6,85.9z"/>
</g>
<g opacity="0.8">
	<path fill="#FF3F00" d="M33.6,75.2c-0.2,0-0.4-0.1-0.6-0.2l-3.2-2.9c-0.4-0.3-0.4-0.9-0.1-1.2c0.3-0.4,0.9-0.4,1.2-0.1l3.2,2.9
		c0.4,0.3,0.4,0.9,0.1,1.2C34.1,75.1,33.9,75.2,33.6,75.2z"/>
</g>
<g opacity="0.8">
	<path fill="#FF3F00" d="M122.7,69.7c-0.4,0-0.7-0.2-0.8-0.6c-0.2-0.4,0.1-0.9,0.5-1.1c3.6-1.2,9.5-3.7,13-5.5
		c0.4-0.2,0.9,0,1.1,0.4c0.2,0.4,0,0.9-0.4,1.1c-3.5,1.8-9.6,4.3-13.2,5.6C122.9,69.7,122.8,69.7,122.7,69.7z"/>
</g>
</svg>
